<svg width="400" height="400" viewBox="0 0 400 400" fill="none" xmlns="http://www.w3.org/2000/svg">
  <!-- Background circle -->
  <circle cx="200" cy="200" r="180" fill="#0F172A"/>
  
  <!-- Streak Flame -->
  <path d="M200 80 Q160 140 170 200 Q160 260 200 300 Q240 260 230 200 Q240 140 200 80" fill="#F97316"/>
  <path d="M200 100 Q170 150 175 190 Q170 230 200 260 Q230 230 225 190 Q230 150 200 100" fill="#FB923C"/>
  
  <!-- Checkmarks forming streak -->
  <path d="M165 170 L180 185 L210 150" stroke="#67E8F9" stroke-width="18" stroke-linecap="round" stroke-linejoin="round"/>
  <path d="M175 200 L190 215 L220 180" stroke="#22D3EE" stroke-width="16" stroke-linecap="round" stroke-linejoin="round"/>
  
  <!-- Code brackets -->
  <text x="95" y="255" font-family="monospace" font-size="52" fill="#67E8F9" font-weight="bold">{</text>
  <text x="255" y="255" font-family="monospace" font-size="52" fill="#67E8F9" font-weight="bold">}</text>
  
  <!-- Text -->
  <text x="200" y="340" text-anchor="middle" font-family="Arial, sans-serif" font-size="44" font-weight="700" fill="#E0F2FE">EYES ON</text>
  <text x="200" y="375" text-anchor="middle" font-family="Arial, sans-serif" font-size="36" font-weight="600" fill="#F97316">STREAK</text>
</svg>
